<svg width="17" height="16" viewBox="0 0 17 16" fill="none" xmlns="http://www.w3.org/2000/svg">
<path fill-rule="evenodd" clip-rule="evenodd" d="M3.62709 9.27708L3.62709 15.4465C3.62709 15.7519 3.37477 16 3.02783 16L0.567717 16C0.252318 16 -1.18158e-06 15.7519 -1.15488e-06 15.4465L1.47139e-07 0.553137C1.73834e-07 0.247779 0.252319 8.62482e-07 0.567718 8.90055e-07L3.02783 1.10513e-06C3.37477 1.13546e-06 3.62709 0.247779 3.62709 0.553137L3.62709 6.72263L15.6122 0.209207C15.8961 0.0557859 16.243 0.0557859 16.5269 0.209207C16.8108 0.362628 17 0.646014 17 0.952856C17 4.1839 17 11.8158 17 15.0471C17 15.3537 16.8108 15.6371 16.5269 15.7905C16.243 15.9439 15.8961 15.9439 15.6122 15.7908L3.62709 9.27708Z" fill="#B3B3B3"/>
</svg>
