<svg width="17" height="16" viewBox="0 0 17 16" fill="none" xmlns="http://www.w3.org/2000/svg">
<path fill-rule="evenodd" clip-rule="evenodd" d="M13.7619 13.6218C13.7926 13.6218 13.8205 13.6398 13.8317 13.6727C13.8456 13.7027 13.8374 13.7386 13.8151 13.7625C13.5834 14.011 13.1199 14.5079 13.1199 14.5079C12.8016 14.8491 12.8016 15.4028 13.1199 15.7441C13.4381 16.0853 13.9518 16.0853 14.27 15.7441C14.27 15.7441 16.3831 13.4812 16.9442 12.8765C16.9805 12.8376 17 12.7837 17 12.7298C17 12.676 16.9805 12.6221 16.9442 12.5831C16.3831 11.9785 14.27 9.71553 14.27 9.71553C13.9518 9.37429 13.4381 9.37429 13.1199 9.71553C12.8016 10.0568 12.8016 10.6106 13.1199 10.9518C13.1199 10.9518 13.6084 11.4756 13.8485 11.733C13.8708 11.757 13.8792 11.7929 13.8653 11.8228C13.8541 11.8558 13.8262 11.8738 13.7955 11.8738C13.3712 11.8738 12.3775 11.8707 12.3775 11.8707C12.0035 11.8707 11.6292 11.6761 11.2356 11.3918C10.736 11.0266 10.2307 10.5118 9.71712 9.91314C9.71712 9.91314 9.41569 9.56289 9.25936 9.3803C9.23424 9.35037 9.20074 9.33242 9.16166 9.33242C9.12537 9.32943 9.08909 9.34436 9.06396 9.3713C8.83785 9.5958 8.29627 10.1286 8.07016 10.3531C8.04224 10.3801 8.02545 10.416 8.02545 10.4549C8.02266 10.4938 8.03675 10.5327 8.06187 10.5627C8.21819 10.7453 8.51963 11.0955 8.51963 11.0955C9.82882 12.6191 11.1632 13.6158 12.3747 13.6158C12.3747 13.6158 13.346 13.6188 13.7619 13.6218ZM13.8151 2.23827C13.8374 2.26222 13.8456 2.29515 13.8317 2.32807C13.8205 2.358 13.7926 2.37893 13.7619 2.37893C13.346 2.37893 12.3747 2.38192 12.3747 2.38192C11.5233 2.38192 10.6161 2.84591 9.71167 3.6601C8.57554 4.68381 7.39737 6.27924 6.22496 7.88067C5.12512 9.37732 4.03384 10.8829 2.97029 11.8408C2.40921 12.3467 1.88145 12.7119 1.35386 12.7119C1.35386 12.7119 0.482923 12.7119 0.139573 12.7119C0.0614122 12.7119 0 12.7777 0 12.8585C0 13.1908 0 13.978 0 14.3073C0 14.3492 0.0141318 14.3851 0.0392549 14.415C0.0671695 14.442 0.100493 14.4569 0.139573 14.4569C0.371264 14.4569 0.815194 14.4569 0.815194 14.4569H1.35386C2.20805 14.4569 3.11265 13.996 4.01709 13.1788C5.15321 12.1551 6.33121 10.5597 7.50641 8.95826C8.60346 7.4616 9.69754 5.95594 10.7611 4.99808C11.3222 4.49221 11.8471 4.12704 12.3747 4.12704H12.3775C12.3775 4.12704 13.3712 4.12406 13.7955 4.12406C13.8262 4.12406 13.8541 4.14499 13.8653 4.17492C13.8792 4.20485 13.8708 4.24077 13.8485 4.26472C13.6084 4.52514 13.1199 5.049 13.1199 5.049C12.8016 5.39024 12.8016 5.94099 13.1199 6.28223C13.4381 6.62346 13.9518 6.62346 14.27 6.28223C14.27 6.28223 16.3831 4.01926 16.9442 3.41461C16.9805 3.3757 17 3.32486 17 3.26798C17 3.2141 16.9805 3.16021 16.9442 3.1213C16.3831 2.51964 14.27 0.253683 14.27 0.253683C13.9518 -0.0845611 13.4381 -0.0845611 13.1199 0.253683C12.8016 0.594921 12.8016 1.14871 13.1199 1.48994C13.1199 1.48994 13.5834 1.98683 13.8151 2.23827ZM0.815194 3.28891H1.35386C1.82282 3.28891 2.29192 3.58223 2.78601 3.9983C3.4113 4.52213 4.045 5.25255 4.68704 6.06673C4.68704 6.06673 4.97159 6.42892 5.12233 6.62049C5.14466 6.65043 5.18113 6.66836 5.21742 6.67136C5.2537 6.67734 5.28982 6.66239 5.31773 6.63844C5.55222 6.42592 6.1133 5.91702 6.35058 5.70449C6.37849 5.67755 6.39533 5.64168 6.39812 5.60277C6.40091 5.56385 6.3897 5.52489 6.36737 5.49496C6.21663 5.30339 5.92924 4.9412 5.92924 4.9412C5.05551 3.83068 4.18449 2.86984 3.34147 2.27417C2.66872 1.79823 1.99869 1.54081 1.35386 1.54081H0V3.28891H0.815194Z" fill="#B3B3B3"/>
</svg>
