<svg width="18" height="17" viewBox="0 0 18 17" fill="none" xmlns="http://www.w3.org/2000/svg">
<path fill-rule="evenodd" clip-rule="evenodd" d="M0.071979 7.5345C-0.0291916 8.20369 -0.0232404 8.8871 0.086857 9.56198C0.253491 10.5957 0.899244 11.4984 1.84549 12.0252C4.43724 13.4689 10.5759 16.8889 10.5759 16.8889C10.8466 17.037 11.1771 17.037 11.4479 16.8889C11.7157 16.7409 11.8823 16.4675 11.8823 16.1713V0.831181C11.8823 0.535028 11.7157 0.258786 11.4479 0.110709C11.1771 -0.037367 10.8466 -0.0373781 10.5759 0.113546C10.5759 0.113546 4.43724 3.53073 1.84549 4.97447C0.899244 5.50128 0.253491 6.40682 0.086857 7.44051L0.071979 7.5345ZM13.3106 2.32335C13.3106 2.29202 13.3255 2.26068 13.3553 2.24359C13.382 2.22366 13.4176 2.2208 13.4473 2.23219C16.1075 3.1776 18 5.62939 18 8.4998C18 11.3731 16.1075 13.822 13.4473 14.7703C13.4176 14.7817 13.382 14.776 13.3553 14.7589C13.3285 14.739 13.3106 14.7105 13.3106 14.6791C13.3106 14.3317 13.3106 13.4405 13.3106 13.1301C13.3106 13.0646 13.3493 13.0019 13.4118 12.9735C15.1049 12.1391 16.2653 10.4476 16.2653 8.4998C16.2653 6.55202 15.1049 4.86338 13.4118 4.02903C13.3493 3.99771 13.3106 3.93792 13.3106 3.86957C13.3106 3.55918 13.3106 2.66791 13.3106 2.32335ZM1.80085 7.69679C1.88714 7.15859 2.2265 6.6859 2.71748 6.41252L10.1444 2.2749C10.1444 2.2749 10.1444 12.8396 10.1444 14.5054C10.1444 14.551 10.1207 14.5937 10.0791 14.6165C10.0374 14.6393 9.98986 14.6393 9.9482 14.6165C7.96049 13.5088 4.49987 11.5838 2.71748 10.59C2.2265 10.3166 1.88714 9.8439 1.80085 9.3057C1.71456 8.77319 1.71456 8.2293 1.80085 7.69679ZM13.3106 5.5326C13.3106 5.49273 13.3344 5.45569 13.3701 5.4386C13.4088 5.42152 13.4534 5.42438 13.4861 5.45C14.4354 6.15622 15.0483 7.26108 15.0483 8.4998C15.0483 9.74136 14.4354 10.8434 13.4861 11.5525C13.4534 11.5753 13.4088 11.5781 13.3701 11.561C13.3344 11.5439 13.3106 11.5069 13.3106 11.4699C13.3106 10.5131 13.3106 6.4894 13.3106 5.5326ZM0.071979 7.53161L0.0840674 7.44618C0.0810917 7.47465 0.0749546 7.50313 0.071979 7.53161L0.0364112 7.75091L0.071979 7.5345V7.53161Z" fill="#B3B3B3"/>
</svg>
