<svg width="17" height="16" viewBox="0 0 17 16" fill="none" xmlns="http://www.w3.org/2000/svg">
<path fill-rule="evenodd" clip-rule="evenodd" d="M9.57084 12.1318L10.5032 11.2121C10.8323 10.8885 10.8323 10.3663 10.5032 10.0427C10.1771 9.71908 9.64304 9.71908 9.31401 10.0427L6.40747 12.901L9.31401 15.7594C9.64304 16.0802 10.1771 16.0802 10.5032 15.7594C10.8323 15.4358 10.8323 14.9107 10.5032 14.5871L9.57084 13.6703H12.9881C15.2019 13.6703 17 11.899 17 9.72189V3.94553C17 1.76839 15.2019 0 12.9881 0H4.01482C1.79818 0 0 1.76839 0 3.94553V9.72189C0 11.899 1.79818 13.6703 4.01482 13.6703H4.81147V12.1318H4.01482C2.66117 12.1318 1.56444 11.0503 1.56444 9.72189V3.94553C1.56444 2.61711 2.66117 1.53568 4.01482 1.53568H12.9881C14.3389 1.53568 15.4387 2.61711 15.4387 3.94553V9.72189C15.4387 11.0503 14.3389 12.1318 12.9881 12.1318H9.57084Z" fill="#B3B3B3"/>
</svg>
