<svg width="17" height="16" viewBox="0 0 17 16" fill="none" xmlns="http://www.w3.org/2000/svg">
<path fill-rule="evenodd" clip-rule="evenodd" d="M13.3729 6.72292V0.553455C13.3729 0.248097 13.6252 0 13.9722 0H16.4323C16.7477 0 17 0.248097 17 0.553455V15.4469C17 15.7522 16.7477 16 16.4323 16H13.9722C13.6252 16 13.3729 15.7522 13.3729 15.4469V9.27737L1.38776 15.7908C1.1039 15.9442 0.756957 15.9442 0.473098 15.7908C0.189239 15.6374 0 15.354 0 15.0471C0 11.8161 0 4.18422 0 0.952883C0 0.646337 0.189239 0.362944 0.473098 0.209523C0.756957 0.0561024 1.1039 0.0560804 1.38776 0.209205L13.3729 6.72292Z" fill="#B3B3B3"/>
</svg>
